<svg xmlns="http://www.w3.org/2000/svg" viewBox="0 18.899999618530273 239.25999450683594 49.06999969482422" data-asc="1.1552734375" width="239.25999450683594" height="49.06999969482422"><defs/><g fill="#000000"><g transform="translate(0, 0)"><path d="M6.32 57.76L6.32 49.34L13.40 49.34L13.40 26.83L9.03 26.83L8.06 35.06L0 35.06L0 18.90L39.50 18.90L39.50 35.06L31.45 35.06L30.47 26.83L26.10 26.83L26.10 49.34L33.18 49.34L33.18 57.76L6.32 57.76ZM55.20 58.20Q47.95 58.20 43.84 54.55Q39.72 50.90 39.72 44.43Q39.72 40.36 41.52 37.38Q43.31 34.40 46.53 32.78Q49.76 31.15 54.03 31.15Q58.20 31.15 61.18 32.68Q64.16 34.20 65.73 36.93Q67.31 39.65 67.31 43.21Q67.31 44.04 67.24 44.81Q67.16 45.58 67.07 46.22L51.37 46.22Q51.78 48.71 53.63 49.79Q55.47 50.88 58.13 50.88Q60.38 50.88 62.41 50.09Q64.45 49.29 65.87 48.10L66.53 48.39L66.53 55.40Q65.36 56.20 63.50 56.84Q61.65 57.47 59.48 57.84Q57.32 58.20 55.20 58.20M54.66 37.16Q53.03 37.16 52.20 38.43Q51.37 39.70 51.27 41.97L58.06 41.97Q57.96 39.70 57.14 38.43Q56.32 37.16 54.66 37.16ZM78.88 58.20Q76.37 58.20 74.40 57.19Q72.44 56.18 71.33 54.39Q70.21 52.61 70.21 50.29Q70.21 46.68 73.00 44.53Q75.78 42.38 80.42 42.38Q82.03 42.38 83.50 42.58Q84.96 42.77 86.47 43.24L86.47 42.70Q86.47 40.48 85.12 39.48Q83.76 38.48 80.79 38.48Q78.64 38.48 76.44 39.04Q74.24 39.60 72.44 40.60L71.78 40.31L71.78 33.18Q74.34 32.18 77.60 31.67Q80.86 31.15 84.16 31.15Q91.46 31.15 94.82 33.59Q98.19 36.04 98.19 41.43L98.19 50.44L101.37 50.44L101.37 57.76L88.04 57.76L86.84 53.93Q85.69 55.93 83.58 57.07Q81.47 58.20 78.88 58.20M83.98 51.95Q84.64 51.95 85.36 51.72Q86.08 51.49 86.47 51.10L86.47 47.02Q85.86 46.75 85.24 46.66Q84.62 46.56 84.08 46.56Q82.84 46.56 81.99 47.29Q81.15 48.02 81.15 49.24Q81.15 50.49 81.93 51.22Q82.71 51.95 83.98 51.95ZM115.58 58.20Q112.04 58.20 109.47 56.52Q106.91 54.83 105.54 51.77Q104.17 48.71 104.17 44.63Q104.17 40.53 105.52 37.50Q106.86 34.47 109.29 32.81Q111.72 31.15 114.97 31.15Q119.17 31.15 122.92 34.20L122.92 27.93L118.65 27.93L118.65 21.26L134.64 19.68L134.64 50.44L138.06 50.44L138.06 57.76L123.17 57.76L123.17 55.03Q121.66 56.47 119.65 57.34Q117.65 58.20 115.58 58.20M119.36 50.90Q120.29 50.90 121.28 50.61Q122.27 50.32 122.92 49.85L122.92 39.58Q122.27 39.09 121.28 38.77Q120.29 38.45 119.36 38.45Q117.65 38.45 116.69 40.09Q115.72 41.72 115.72 44.65Q115.72 47.58 116.69 49.24Q117.65 50.90 119.36 50.90ZM161.77 51.05Q166.53 51.05 168.96 52.98Q171.39 54.91 171.39 58.47Q171.39 61.57 169.27 63.70Q167.16 65.82 163.38 66.89Q159.59 67.97 154.54 67.97Q149.54 67.97 146.40 67.08Q143.26 66.19 141.81 64.71Q140.36 63.23 140.36 61.50Q140.36 60.18 141.35 59.11Q142.33 58.03 143.87 57.54Q142.11 56.13 142.11 53.83Q142.11 51.81 143.57 50.43Q145.02 49.05 147.71 48.39Q144.43 47.44 142.27 45.41Q140.11 43.38 140.11 40.26Q140.11 36.16 143.90 33.65Q147.68 31.15 154.96 31.15Q158.79 31.15 161.82 32.13L171.97 31.13L171.97 38.70L168.90 38.70Q169.07 39.45 169.07 40.26Q169.07 44.36 165.16 46.84Q161.25 49.32 154.03 49.32Q152.27 49.32 152.27 50.17Q152.27 51.05 154.03 51.05L161.77 51.05M154.96 36.33Q153.47 36.30 152.44 37.34Q151.42 38.38 151.42 40.21Q151.42 42.07 152.43 43.12Q153.44 44.17 154.96 44.14Q156.47 44.12 157.48 43.08Q158.50 42.04 158.50 40.21Q158.50 38.40 157.48 37.38Q156.47 36.35 154.96 36.33M147.78 60.13Q147.78 61.60 149.29 62.44Q150.81 63.28 153.81 63.28Q157.08 63.28 158.52 62.52Q159.96 61.77 159.96 60.60Q159.96 59.38 158.20 59.38L150.71 59.38Q149.22 59.38 147.95 59.18Q147.78 59.64 147.78 60.13ZM188.38 58.20Q181.13 58.20 177.01 54.55Q172.90 50.90 172.90 44.43Q172.90 40.36 174.69 37.38Q176.49 34.40 179.71 32.78Q182.93 31.15 187.21 31.15Q191.38 31.15 194.36 32.68Q197.34 34.20 198.91 36.93Q200.49 39.65 200.49 43.21Q200.49 44.04 200.42 44.81Q200.34 45.58 200.24 46.22L184.55 46.22Q184.96 48.71 186.80 49.79Q188.65 50.88 191.31 50.88Q193.55 50.88 195.59 50.09Q197.63 49.29 199.05 48.10L199.71 48.39L199.71 55.40Q198.54 56.20 196.68 56.84Q194.82 57.47 192.66 57.84Q190.50 58.20 188.38 58.20M187.84 37.16Q186.21 37.16 185.38 38.43Q184.55 39.70 184.45 41.97L191.24 41.97Q191.14 39.70 190.32 38.43Q189.50 37.16 187.84 37.16ZM203.61 57.76L203.61 50.44L207.15 50.44L207.15 39.23L203.61 39.23L203.61 32.57L218.63 31.13L218.63 34.45Q220.14 32.86 222.41 31.99Q224.68 31.13 227.29 31.13Q231.71 31.13 233.78 33.63Q235.84 36.13 235.84 41.16L235.84 50.44L239.26 50.44L239.26 57.76L224.12 57.76L224.12 41.16Q224.12 39.75 223.51 39.10Q222.90 38.45 221.90 38.45Q221.07 38.45 220.25 38.94Q219.43 39.43 218.87 40.28L218.87 50.44L221.07 50.44L221.07 57.76L203.61 57.76Z"/></g></g></svg>